<?xml version="1.0" encoding="UTF-8"?><svg id="Calque_1" xmlns="http://www.w3.org/2000/svg" viewBox="0 0 500 500"><defs><style>.cls-1{fill:none;stroke:#fff;stroke-linecap:round;stroke-miterlimit:10;stroke-width:16.98px;}.cls-2{fill:#fff;}</style></defs><path class="cls-2" d="M67.07,399.75l-.21-14.11,1.76-.21c5.22,8.89,11.28,15.31,17.2,15.31,3.74,0,6.63-2.54,6.63-6.35,0-3.1-1.97-5.92-6.21-7.89l-9.03-4.23c-7.47-3.46-10.08-8.32-10.08-13.68,0-8.74,6.77-14.81,17.84-14.81,4.16,0,8.96.85,12.06,3.03l.42,13.04-1.69.42c-5.43-8.53-9.23-12.62-13.82-12.62-3.6,0-6.56,2.68-6.56,6.41,0,3.31,2.33,5.57,5.85,7.19l9.38,4.3c6.42,2.89,9.8,6.56,9.8,13.33,0,10.08-7.69,16.15-18.4,16.15-6.7,0-11.92-2.4-14.95-5.29Z"/><path class="cls-2" d="M124.14,401.65c-2.47,1.83-5.57,3.39-9.45,3.39-4.87,0-8.95-3.03-8.95-7.54,0-5.22,5.5-7.83,10.86-9.31l7.19-1.97v-4.31c0-5.36-.28-8.67-4.16-8.67-2.54,0-4.3,1.9-4.3,4.37,0,1.48.99,3.17,2.04,4.3l-8.81,2.47c-1.9-1.27-2.75-3.1-2.75-4.72,0-5.08,10.15-10.43,18.12-10.43,5.92,0,10.22,3.74,10.22,9.52v18.76c0,1.41.71,1.9,1.55,1.9s1.83-.42,2.68-.99l1.06,1.76c-2.61,2.4-5.99,4.87-9.8,4.87-2.47,0-4.72-1.13-5.5-3.39ZM120.61,399.75c1.13,0,2.19-.49,3.17-1.2v-8.81l-1.48.42c-3.46,1.06-5.71,2.68-5.71,5.57,0,2.26,1.62,4.02,4.02,4.02Z"/><path class="cls-2" d="M159.2,404.05h-17.63v-1.91c2.4-.56,3.81-2.19,3.81-7.76v-14.66c-.21-2.47-1.13-3.46-3.53-3.67l-.21-1.76c5.43-1.41,10.43-3.74,13.33-5.08l1.34,1.2c-.35,2.04-.49,7.33-.49,10.71h-.07v13.26c0,5.57,1.27,7.19,3.46,7.76v1.91ZM144.46,358.43c0-3.74,2.68-6.28,5.92-6.28,2.89,0,5.29,2.47,5.29,5.43,0,3.46-2.82,6.35-5.92,6.35-2.68,0-5.29-2.26-5.29-5.5Z"/><path class="cls-2" d="M166.54,396.43v-15.93c-.35-3.17-2.18-3.74-4.09-3.81l-.42-1.84c3.46-1.41,8.67-4.02,11.56-5.64l1.76.71c.42,1.62.85,3.74,1.13,5.85,2.89-2.96,7.33-6.56,11.42-6.56,6.42,0,10.36,3.88,10.36,10.36v14.81c0,5.57,1.27,7.19,3.46,7.76v1.91h-17.63v-1.91c2.4-.56,3.81-2.19,3.81-7.76v-12.62c0-3.81-.92-6.21-4.02-6.21-2.18,0-4.86,1.83-6.98,3.95v14.88h.07c0,5.57,1.41,7.19,3.81,7.76v1.91h-17.63v-1.91c1.9-.49,3.1-1.76,3.38-5.71Z"/><path class="cls-2" d="M206.9,396.08v-21.64h-3.67l-.49-2.26,11.63-10.93h2.96v8.96h7.97l.49,1.34-1.69,2.89h-6.84v20.44c0,2.82.7,4.79,2.89,4.79,1.55,0,3.1-.63,4.44-1.27l1.06,1.76c-2.47,2.33-6.28,4.87-10.01,4.87-4.37,0-8.74-2.4-8.74-8.96Z"/><path class="cls-2" d="M227.99,385.72l1.41-4.31h16.22l.85,1.62-1.2,4.37h-16.43l-.85-1.69Z"/><path class="cls-2" d="M250,356.46v-1.76h35.61l1.97,13.39-1.83.49c-3.38-6.41-7.83-10.15-14.24-10.15h-6.35v18.26h2.68c5.36,0,8.32-2.96,8.88-7.54h1.9v18.89h-1.9c-.57-4.72-3.53-7.61-8.88-7.61h-2.68v13.68c0,3.24.71,6.21,8.11,6.21,6.49,0,11.63-4.3,13.82-9.38l1.83.29-1.69,12.83h-37.23v-1.76c3.32-.78,4.09-2.12,4.09-8.18v-29.47c0-6.07-.78-7.41-4.09-8.18ZM262.76,349.54l14.81-9.66,3.03,9.09-17.28,2.12-.57-1.56Z"/><path class="cls-2" d="M295.5,396.43v-34.48c-.21-2.33-1.2-3.39-3.53-3.53l-.21-1.76c5.43-1.41,10.43-3.74,13.33-5.08l1.34,1.2c-.35,2.04-.49,7.34-.49,10.72h-.07v30.88h.07c0,5.57,1.41,7.19,3.8,7.76v1.91h-17.63v-1.91c1.91-.49,3.1-1.76,3.38-5.71Z"/><path class="cls-2" d="M311.45,387.2c0-9.17,7.05-17.98,17.56-17.98,9.73,0,17.77,7.89,17.77,17.63s-7.12,18.19-17.41,18.19-17.91-8.18-17.91-17.84ZM336.62,390.16c0-8.95-4.72-17.13-9.52-17.13-3.88,0-5.5,4.3-5.5,10.22,0,9.52,4.51,17.98,9.66,17.98,3.74,0,5.36-5.08,5.36-11.07Z"/><path class="cls-2" d="M367.95,404.05h-17.63v-1.91c2.39-.56,3.81-2.19,3.81-7.76v-14.66c-.21-2.47-1.13-3.46-3.53-3.67l-.21-1.76c5.43-1.41,10.44-3.74,13.33-5.08l1.34,1.2c-.36,2.04-.49,7.33-.49,10.71h-.07v13.26c0,5.57,1.27,7.19,3.46,7.76v1.91ZM353.21,358.43c0-3.74,2.68-6.28,5.92-6.28,2.89,0,5.29,2.47,5.29,5.43,0,3.46-2.82,6.35-5.92,6.35-2.68,0-5.29-2.26-5.29-5.5Z"/><path class="cls-2" d="M375.29,395.03v-14.53c-.35-3.17-2.18-3.74-4.09-3.81l-.42-1.84c3.46-1.41,8.67-4.02,11.56-5.64l1.76.71c.57,2.04,1.13,5.01,1.34,7.76,2.33-3.88,5.92-8.04,9.09-8.04s5.5,2.61,6.28,4.09l-3.53,8.04c-1.41-1.41-3.1-3.03-5.78-3.03-1.91,0-3.95.63-5.85,2.82v13.47c0,4.44,1.27,6.34,6.69,7.12v1.91h-20.38v-1.91c2.47-.49,3.31-3.03,3.31-7.12Z"/><path class="cls-2" d="M401.19,388.39c0-10.01,7.76-19.18,17.34-19.18s12.76,9.31,12.76,16.57h-20.09c.49,8.39,5.08,12.83,10.29,12.83,2.68,0,4.86-1.13,7.19-2.96l1.56,1.62c-3.03,4.16-7.76,7.68-13.61,7.68-8.11,0-15.44-6.77-15.44-16.57ZM420.93,382.61c0-4.02-1.2-9.66-4.51-9.66-2.96,0-4.94,3.59-5.22,9.66h9.73Z"/><path class="cls-1" d="M431.3,354.7c19.69-32.21,31.03-70.07,31.03-110.58,0-117.27-95.06-212.33-212.33-212.33S37.67,126.85,37.67,244.12c0,36.65,9.28,71.12,25.63,101.21"/><path class="cls-2" d="M121.78,299.08c.73-7.23,5.74-25.38,10.82-30.5,7.77-7.84,14.23,2.16,16.97,8.97,4.68,11.62,11.03,33.36-2.59,40.97-1.2.67-4.45,1.46-4.61,1.65-1.61,1.87,3,15.32-3.35,15.98-7.52.78-2.55-12.75-4.44-15.55-.21-.32-4.67-2-5.75-2.77-3.58-2.54-5.52-6.25-7.04-10.24.2-2.75-.27-5.82,0-8.52ZM142.32,312.11c1.85-.8,4.26-3.04,4.77-4.99,1.6-6.12-3.1-24.58-6.37-30.23-.49-.85-1.6-2.87-2.65-2.86-3.94,6.45-6.19,14.1-7.53,21.54-1.15,6.37-2.78,13.11,4.27,16.54v-12.77c0-2.97,7.51-2.97,7.51,0v12.77Z"/><path class="cls-2" d="M274.44,138.39c5-1.03,10.12,2.02,11.32,6.99.71,2.95.74,13.97.3,17.14-.22,1.53-.83,3.08-2.43,3.58s-11.35.49-13.27.19-2.5-1.37-2.94-3.07c-.84-3.2-.63-15.81.4-18.95.8-2.44,4.13-5.37,6.63-5.89ZM278.08,158.82v-11.77c0-.99-3.01-.99-3.01,0v11.77h3.01Z"/><path class="cls-2" d="M278.08,79.67c4.72,3.2,1.6,10.97,2.55,15.98,8.13,1.24,15.67,7.51,18.73,15.09.33.81,1.76,4.79,1.76,5.25v26.3c9.88-7.74,19.23-16.36,28.8-24.55,3.46-2.16,4.84.11,7.51,2.02l33.27,28.84.58,2.43-.04,67.64c-.82,2.27-3.12,3.37-5.37,2.39-.43-.19-2.13-1.69-2.13-1.88v-64.37h-62.62v27.05h18.28c.36,0,2.1,1.07,2.63,1.38,4.5,2.65,17.89,12.18,21.41,15.66.43.42,1.76,1.83,1.76,2.25v42.83h18.54v-10.77c0-2.53,5.87-3.83,7.26-.74.85,1.89-.18,11.08.26,11.52.31.31,4.46-.88,6.3,1.46,1.77,2.25.18,6.55-2.54,6.55h-178.09c3.47,11.47,2.06,24.06-10.79,28.03-1.21,4.08,2.31,15.99-4.5,15.81-6.42-.17-2.77-11.53-3.82-15.72-13.33-3.82-14.51-16.33-11.45-28.12h-41.33c-1.05,0-2.65-1.63-3.26-2.5v-3.01c.27-3.23,2.82-3.72,5.67-3.57-.43-14.25-.32-28.5.32-42.74,7.84-9.23,16.14-17.92,24.91-26.07,2.36-2.2,5.09-3.36,7.69-.86l16.65,16.83.87,2.31-1-2.03v-34.68l1-.61-.66-1.02c.79-1.75,14.97-12.57,16.83-12.73,7.57-.63,6.71,10.35-.64,11l2.59-1h45.41l2.59,1-2.83-.94-22.19-17.36c-2.38,1.54-4.65,3.23-6.82,5.09-4.42,4.23-11.52-.21-8.51-5.59.81-1.44,12.87-10.47,14.58-10.64,1.3-.13,2.22-.02,3.27.85l29.71,22.71.8,1.87-1-1.53c0-9.89,0-19.78,0-29.68l1-.6c-.38-.16-.96-.43-.92-.69,1.1-6.48,5.65-13.13,11.03-16.88,2.58-1.8,7.66-4.85,10.43-3.22-.39-.11-.96-.27-1-.58-.21-1.62-.29-10.08,0-11.46l1-.73c-1.91-1.51.71-3.01,2.5-3.26h3.01ZM292.61,115.74c-3.85-16.78-28-16.65-32.06,0h32.06ZM293.61,123.75h-33.56v70.13c3.22-1.17,14.54-12.02,16.78-12.02h16.78v-58.11ZM356.73,147.3l-24.3-21.53-24.3,21.53h48.59ZM252.03,160.32h-66.63c.59,18.65-.78,37.78-.02,56.38.09,2.31.18,7.63.53,9.49.27,1.44,2.35,2.56,3.21,3.8,2.74,3.93,4.63,9.34,5.79,13.99h57.11v-83.66ZM172.38,198.39l-15.28-16.02-15.78,16.02h31.06ZM329.18,198.39c-1.4-1.09-10.56-8.52-11.27-8.52h-28.8l10.77,8.52h29.31ZM294.61,243.98v-39.83l-17.28-13.11-17.28,13.11v39.83h5.51v-13.78c0-.34,1.43-3.2,1.79-3.72,4.7-6.87,14.77-6.88,19.47,0,.36.52,1.79,3.39,1.79,3.72v13.78h6.01ZM177.89,205.91h-41.58v38.07h31.81c2.46-5.68,3.75-10.87,7.77-15.78.4-.48,2-1.26,2-1.51v-20.79ZM337.19,205.91h-34.57v38.07h34.57v-38.07ZM281.09,243.98v-11.27c0-1.51-2.5-3.87-4.22-3.75-1.48.1-3.79,2.41-3.79,3.75v11.27h8.02ZM185.91,271.53c2.42-.62,4.5-4.05,4.89-6.38.88-5.29-4.3-25.26-7.48-29.86-.48-.69-1.04-1.27-1.67-1.83-4.69,7.16-8.14,18.75-8.76,27.3-.32,4.45.21,9.16,5,10.76v-12.27c0-1.38,2.71-2.91,4.21-2.75s3.8,2.36,3.8,3.76v11.27Z"/><path class="cls-2" d="M315.5,214.07c2.3,2.71,2.35,14.81-4.39,12.65-3.21-1.03-3.06-8.74-2.25-11.32s4.91-3.37,6.64-1.33Z"/><path class="cls-2" d="M275.93,204.01c5.78-1.3,6.19,6.08,2.67,7.18-5.74,1.8-7.03-6.2-2.67-7.18Z"/><path class="cls-2" d="M326.03,213.02c2.42-.53,4.72.66,5.12,3.19.63,4.01.89,11.97-5.12,10.64-4.12-.91-4.12-12.92,0-13.83Z"/><path class="cls-2" d="M331.04,161.42c2.78-.6,4.69.93,5.11,3.69.27,1.76.26,7.16-.08,8.87-.95,4.72-7.2,4.39-7.87.09-.49-3.1-.99-11.81,2.84-12.65Z"/><path class="cls-2" d="M350.07,161.42c2.33-.7,4.75.8,5.12,3.19.52,3.31,1.1,12.18-3.27,12.73-6.94.88-5.77-14.75-1.85-15.92Z"/><path class="cls-2" d="M310.29,176.21c-2.1-2.6-2.6-16.26,4-14.79,3.81.85,3.43,10.06,2.76,13.07-.65,2.93-4.99,3.91-6.76,1.72Z"/><path class="cls-2" d="M197.58,196.23c-.61-.56-1.08-1.73-1.18-2.57-.49-4.04-.49-16.04,0-20.08.58-4.79,7.22-5.23,7.98,1.08.49,4.06.49,13.86,0,17.92-.45,3.7-3.69,6.5-6.8,3.65Z"/><path class="cls-2" d="M216.12,196.23c-.61-.56-1.08-1.73-1.18-2.57-.49-4.04-.49-16.04,0-20.08.58-4.79,7.22-5.23,7.98,1.08.49,4.06.49,13.86,0,17.92-.45,3.7-3.69,6.5-6.8,3.65Z"/><path class="cls-2" d="M197.58,233.3c-.61-.56-1.08-1.73-1.18-2.57-.49-4.04-.49-16.04,0-20.08.58-4.79,7.22-5.23,7.98,1.08.49,4.06.49,13.86,0,17.92-.45,3.7-3.69,6.5-6.8,3.65Z"/><path class="cls-2" d="M216.12,233.3c-.61-.56-1.08-1.73-1.18-2.57-.49-4.04-.49-16.04,0-20.08.58-4.79,7.22-5.23,7.98,1.08.49,4.06.49,13.86,0,17.92-.45,3.7-3.69,6.5-6.8,3.65Z"/><path class="cls-2" d="M234.65,171c2.06-1.88,5.48-1.08,6.34,1.61v22.01c-1.2,3.75-6.86,3.33-7.47-.52-.57-3.6-.51-16.78-.05-20.53.1-.85.57-2.01,1.18-2.57Z"/><path class="cls-2" d="M234.65,233.3c-.61-.56-1.08-1.73-1.18-2.57-.49-4.04-.49-16.04,0-20.08.52-4.25,6.01-4.94,7.52-.97v22.01c-.86,2.68-4.29,3.49-6.34,1.61Z"/><path class="cls-2" d="M146.7,216.53c1.72-.38,3.68.1,4.59,1.71.79,1.41.87,11.5.45,13.36-.91,4.06-7.12,4.34-7.86-.94-.44-3.13-1-13.29,2.82-14.13Z"/><path class="cls-2" d="M164.72,216.53c2.05-.61,4.73.47,5.15,2.66.3,1.56.3,10.94,0,12.5-.66,3.46-6.82,4.13-7.47-.02-.3-1.93-.37-10.66-.02-12.48.16-.86,1.52-2.41,2.35-2.66Z"/><path class="cls-2" d="M357.73,297.83c-.79,5.84-6.31,12.68-12.47,13.32-.83,3.75,1.91,14.35-2.53,15.76-7.98,2.54-4.93-11.64-5.59-15.75-7.86-2.09-10.68-6.94-12.47-14.34-.14-.59.37-.91-.74-.75-2.82.4-12.29,5.18-15.29,6.76-12.45,6.53-25.14,16.13-34.81,26.3-1.27,1.33-4.34,5.89-5.47,6.55-2.75,1.58-6.45-.85-6.2-3.66.25-2.76,10.38-12.83,12.92-15.16,14.29-13.1,31.67-23.13,49.98-29.42l3.63-14.41c-34.65,4.3-68.74,14.14-99.04,31.46-4.27.96-7.11-4.09-3.12-7.14,3.9-2.97,13.38-7.19,18.17-9.38,27.48-12.6,57.34-19.88,87.42-23.04,3.7-9.81,12.95-10.94,17.97-1.41,7.25.28,14.7-1.21,21.96-.53,7.76.72,4.71,8.03,2.49,8.03h-21.29l2.51,9.52c5.61-.27,12.73-1.84,18.25-.97,4.08.64,4.75,7.3-1.98,7.98-4.55.46-9.6-.35-14.27.51-.29,3.07.4,6.79,0,9.77ZM345.21,303.09c1.89-.76,3.86-2.82,4.53-4.73,1.94-5.54-2.21-20.88-4.52-26.59-.57-1.39-2.71-6.78-4.26-6.76s-6,14.36-6.52,16.53c-1.68,7-4.9,17.35,2.76,21.55v-11.27c0-.15,1.05-2.49,1.27-2.74,1.96-2.24,6.75-.56,6.75,1.74v12.27Z"/><path class="cls-2" d="M211.82,306.69c4.02-.9,6.7,3.49,3.92,6.44-7.83,5.58-15.58,11.41-22.58,18-2.08,1.96-3.28,5.19-6.49,5.06-2.48-.1-4.18-2.27-3.68-4.68.61-2.95,13.21-13.47,16.22-15.88,2.08-1.67,10.72-8.52,12.61-8.94Z"/><path class="cls-2" d="M130.57,460.67v-26.89c-.3-2.65-1.83-3.13-3.42-3.18l-.35-1.53c2.89-1.18,7.25-3.36,9.67-4.72l1.47.59c.24.88.53,2.06.71,3.24,3.01-2.53,5.84-3.83,8.67-3.83,5.25,0,10.67,5.13,10.67,13.44,0,9.97-7.72,16.51-15.45,16.51-1,0-2.18-.12-3.3-.29v6.66c0,3.72,1.06,5.31,5.6,5.96v1.59h-17.04v-1.59c2.06-.41,2.77-2.53,2.77-5.96ZM144.54,451.23c3.19,0,5.13-4.89,5.13-10.43,0-6.02-2.71-11.56-6.43-11.56-1.36,0-2.65.77-4.01,2.13v17.1c1.71,1.65,3.48,2.77,5.31,2.77Z"/><path class="cls-2" d="M160.95,439.38c0-7.67,5.9-15.04,14.68-15.04,8.14,0,14.86,6.61,14.86,14.74s-5.96,15.21-14.56,15.21-14.98-6.84-14.98-14.92ZM182,441.86c0-7.49-3.95-14.33-7.96-14.33-3.24,0-4.6,3.6-4.6,8.55,0,7.96,3.77,15.04,8.08,15.04,3.13,0,4.48-4.24,4.48-9.26Z"/><path class="cls-2" d="M197.23,460.67v-26.89c-.3-2.65-1.83-3.13-3.42-3.18l-.35-1.53c2.89-1.18,7.25-3.36,9.67-4.72l1.47.59c.24.88.53,2.06.71,3.24,3.01-2.53,5.84-3.83,8.67-3.83,5.25,0,10.67,5.13,10.67,13.44,0,9.97-7.72,16.51-15.45,16.51-1,0-2.18-.12-3.3-.29v6.66c0,3.72,1.06,5.31,5.6,5.96v1.59h-17.04v-1.59c2.06-.41,2.77-2.53,2.77-5.96ZM211.2,451.23c3.19,0,5.13-4.89,5.13-10.43,0-6.02-2.71-11.56-6.43-11.56-1.36,0-2.65.77-4.01,2.13v17.1c1.71,1.65,3.48,2.77,5.31,2.77Z"/><path class="cls-2" d="M242.24,448.99c1.53,0,3.3-1.06,4.89-2.42v-13.56c-.18-1.94-1-2.83-2.95-2.95l-.18-1.47c4.54-1.18,8.73-3.13,11.15-4.24l1.12,1c-.29,1.71-.41,6.13-.41,8.96h-.06v9.61c.06,3.48,1.71,4.07,3.48,4.13l.35,1.53c-2.89,1.18-7.25,3.36-9.67,4.72l-1.47-.59c-.35-1.12-.65-2.59-.83-4.13-2.42,2.3-5.66,4.72-8.79,4.72-5.37,0-8.67-3.25-8.67-8.67v-11.32c0-2.89-.65-4.07-3.01-4.25l-.18-1.47c4.54-1.18,8.73-3.13,11.15-4.24l1.12,1c-.29,1.71-.41,6.13-.41,8.96v9.49c0,3.18.77,5.19,3.36,5.19Z"/><path class="cls-2" d="M264.19,447.11v-28.83c-.18-1.94-1-2.83-2.95-2.95l-.18-1.47c4.54-1.18,8.72-3.13,11.14-4.24l1.12,1c-.29,1.71-.41,6.13-.41,8.96h-.06v25.82h.06c0,4.66,1.18,6.02,3.19,6.49v1.59h-14.74v-1.59c1.59-.41,2.6-1.47,2.83-4.77Z"/><path class="cls-2" d="M294.98,451.47c-2.06,1.54-4.66,2.83-7.9,2.83-4.07,0-7.49-2.53-7.49-6.31,0-4.36,4.6-6.54,9.08-7.78l6.01-1.65v-3.6c0-4.48-.24-7.25-3.48-7.25-2.12,0-3.6,1.59-3.6,3.66,0,1.23.83,2.65,1.71,3.6l-7.37,2.06c-1.59-1.07-2.3-2.6-2.3-3.95,0-4.25,8.49-8.73,15.15-8.73,4.95,0,8.55,3.13,8.55,7.96v15.68c0,1.18.59,1.59,1.3,1.59s1.53-.35,2.24-.83l.89,1.48c-2.18,2-5.01,4.07-8.2,4.07-2.06,0-3.95-.95-4.6-2.83ZM292.03,449.88c.94,0,1.82-.41,2.65-1v-7.37l-1.24.36c-2.89.88-4.77,2.24-4.77,4.66,0,1.89,1.35,3.36,3.36,3.36Z"/><path class="cls-2" d="M324.3,453.47h-14.74v-1.59c2.01-.47,3.18-1.82,3.18-6.49v-12.26c-.18-2.06-.94-2.89-2.95-3.07l-.18-1.47c4.54-1.18,8.73-3.13,11.14-4.24l1.12,1c-.3,1.71-.41,6.13-.41,8.96h-.06v11.08c0,4.66,1.06,6.02,2.89,6.49v1.59ZM311.98,415.33c0-3.13,2.24-5.25,4.95-5.25,2.42,0,4.42,2.06,4.42,4.54,0,2.89-2.36,5.31-4.95,5.31-2.24,0-4.42-1.89-4.42-4.6Z"/><path class="cls-2" d="M330.44,445.93v-12.15c-.29-2.65-1.83-3.13-3.42-3.18l-.36-1.53c2.89-1.18,7.25-3.36,9.67-4.72l1.47.59c.47,1.71.95,4.19,1.12,6.49,1.94-3.25,4.95-6.72,7.6-6.72s4.6,2.18,5.25,3.42l-2.95,6.72c-1.18-1.18-2.6-2.53-4.83-2.53-1.59,0-3.3.53-4.9,2.36v11.26c0,3.72,1.06,5.31,5.6,5.95v1.59h-17.04v-1.59c2.06-.41,2.77-2.53,2.77-5.95Z"/><path class="cls-2" d="M352.09,440.39c0-8.37,6.49-16.04,14.5-16.04s10.67,7.78,10.67,13.86h-16.8c.41,7.02,4.24,10.73,8.61,10.73,2.24,0,4.07-.94,6.02-2.47l1.3,1.35c-2.53,3.48-6.49,6.43-11.38,6.43-6.78,0-12.91-5.66-12.91-13.86ZM368.6,435.55c0-3.37-1-8.08-3.77-8.08-2.48,0-4.13,3.01-4.36,8.08h8.14Z"/></svg>